<svg xmlns="http://www.w3.org/2000/svg" viewBox="0 0 100 100" width="100" height="100">
  <defs>
    <linearGradient id="fristilFavicon" x1="8%" y1="10%" x2="88%" y2="90%">
      <stop offset="0%" stop-color="#00f2fe" />
      <stop offset="50%" stop-color="#4facfe" />
      <stop offset="100%" stop-color="#b15cff" />
    </linearGradient>
  </defs>
  <g fill="none" stroke="url(#fristilFavicon)" stroke-linecap="round" stroke-linejoin="round">
    <path d="M21 63C17 48 25 32 39 27C49 23 60 26 68 34C75 41 78 52 74 63C70 73 61 80 50 81C38 82 26 75 21 63Z" stroke-width="8" opacity="0.95" />
    <path d="M28 67C35 57 42 50 50 44C57 39 66 33 73 26" stroke-width="8" />
    <path d="M28 32C35 41 42 48 50 54C58 60 66 66 73 74" stroke-width="8" />
  </g>
</svg>
